# xmcd
#
# Track frame offsets:
# 150
# 23372
# 47091
# 70913
# 90776
# 111725
# 125080
# 132613
# 152590
# 171677
# 187636
# 211839
# 232995
# 251217
# 265946
# 293436
# 308466
#
# Disc length: 4684 seconds
#
# Revision: 0
# Processed by: cddbd v1.5.1PL2 Copyright (c) Steve Scherf et al.
# Submitted via: Audion 3.0.2 (http://www.panic.com/audion/)
#
DISCID=e7124a11
DTITLE=airborn - parallel
DYEAR=1900
DGENRE=
TTITLE0=j
TTITLE1=j
TTITLE2=w
TTITLE3=w
TTITLE4=w
TTITLE5=w
TTITLE6=w
TTITLE7=w
TTITLE8=w
TTITLE9=w
TTITLE10=w
TTITLE11=w
TTITLE12=wr
TTITLE13=r
TTITLE14=j
TTITLE15=j
TTITLE16=j
EXTD=
EXTT0=
EXTT1=
EXTT2=
EXTT3=
EXTT4=
EXTT5=
EXTT6=
EXTT7=
EXTT8=
EXTT9=
EXTT10=
EXTT11=
EXTT12=
EXTT13=
EXTT14=
EXTT15=
EXTT16=
PLAYORDER=
